<svg id="Layer_1" data-name="Layer 1" xmlns="http://www.w3.org/2000/svg" viewBox="0 0 311.06 154.69"><defs><style>.cls-1{fill:#00a1fe;}</style></defs><title>SANTADATA</title><path class="cls-1" d="M320,160.06q-7.65-13.58-19.47-19.6t-36.14-6H239.26v14.22q-8.32-9.45-15.52-13.16a34.43,34.43,0,0,0-15.91-3.86q-13,0-21.83,8.3a26.38,26.38,0,0,0-8.84,19.91q0,8,5.32,16.11T206,198.89q9.57,7.81,12.38,11.61a12.71,12.71,0,0,1,2.81,7.58,9.49,9.49,0,0,1-3.72,7.36,13.66,13.66,0,0,1-9.19,3.18c-4.38,0-7.65-2.19-9.88-3.69a31.15,31.15,0,0,1-10.26-12,14.52,14.52,0,0,0-8-15.42c-2.58-1.31-3.06-2.82-3-5.34.06-7,.51-14-.34-20.86C175.34,159.56,165,150.69,153.26,150c-12.88-.74-23.5,6.5-27,18.74-7.82,27-15.51,54-23.26,81-2.76,9.6-10.11,14.59-19.82,13.45-8.78-1-14.86-8-15.09-17.65-.14-6,.09-12.07-.08-18.1a4.38,4.38,0,0,1,.51-2.62,10.82,10.82,0,0,1,0-1.8,25.62,25.62,0,0,0,10.09-2.69,26.29,26.29,0,0,0,8.22-6.74c4.24-5.13,7.43-12.24,9.77-21.72.92-3.72,1.64-5.73,2.67-9.51.07-.26-.2-.55-.6-.8,4.81-14,7.22-25.9,7.1-35.4-.1-8.14-2-14.61-5.72-19.23a21.11,21.11,0,0,0-12.36-7.38,25.34,25.34,0,0,0-5.51-.52,2.55,2.55,0,0,0-1.9-1.32,29.28,29.28,0,0,0-3-.75,1.89,1.89,0,0,0-1.9,2.06l.08,2.25a1.9,1.9,0,0,0,2.06,1.91,22,22,0,0,0,3-1c.94-.33,1.65-.8,1.84-1.59a24.11,24.11,0,0,1,5.08.49A19.19,19.19,0,0,1,98.78,128c3.47,4.33,5.27,10.48,5.37,18.26.11,9.3-2.25,21-7,34.78-.51-.1-1-.07-1,.21-1.94,5.93-2.8,9.74-2.83,9.86h0c-2.22,9-5.19,15.65-9.09,20.37a21.7,21.7,0,0,1-16.75,8.29l-1,0-5.17.2-1,0a21.69,21.69,0,0,1-17.33-7c-4.26-4.42-7.74-10.83-10.64-19.61v0h0c0-.11-1.15-3.75-3.53-9.51-.12-.28-.6-.29-1.14-.14-5.74-14.07-8.86-26-9.24-35.47-.3-7.82,1.24-14,4.61-18.36a19.19,19.19,0,0,1,12.35-7.06,27.33,27.33,0,0,1,6-.39v.15a1.87,1.87,0,0,0,0,.34c.17.87,1,1.33,2,1.64a23.46,23.46,0,0,0,3,.84,1.9,1.9,0,0,0,2-2l0-2.25a1.9,1.9,0,0,0-2-2,30.78,30.78,0,0,0-3,.89,3.62,3.62,0,0,0-1.41.73,28.81,28.81,0,0,0-6.78.37,21.14,21.14,0,0,0-13.43,7.68c-3.62,4.68-5.29,11.22-5,19.45.3,7.63,2.33,16.8,6,27.34,1,2.84,2.13,5.79,3.37,8.82-.31.24-.5.5-.42.73,1.32,3.69,2.19,5.64,3.39,9.27,3.07,9.28,6.8,16.11,11.41,20.9a26.22,26.22,0,0,0,8.72,6.1,25.77,25.77,0,0,0,10.2,1.9,8.86,8.86,0,0,1-.06,1.15,3.73,3.73,0,0,1,.7,2.73c-.11,7-.19,13.93.07,20.89.45,12,10,21.76,22.49,23.3s24.44-6.06,27.77-17.58c2.18-7.57,4.33-15.14,6.51-22.71,5.8-20.18,11.5-40.39,17.44-60.53,2.62-8.88,11-13.76,20.27-12.26,8.54,1.39,14.27,8.26,14.34,17.29,0,5.57-.1,11.15.06,16.71.06,2.41-.55,3.76-2.89,5-6.69,3.47-9.63,10.33-7.81,17.1a15.23,15.23,0,0,0,14.45,11.58q6.06,11.38,14.36,16.9a36.86,36.86,0,0,0,20.77,5.84q15.25,0,24.75-9a29.67,29.67,0,0,0,6.67-9.23V246H264.8q21.66,0,30.45-2.73a41.77,41.77,0,0,0,16.34-9.86,49.13,49.13,0,0,0,11.81-17.94,63.63,63.63,0,0,0,4.29-23.69Q327.69,173.64,320,160.06ZM162.82,212.89c-1.17-4.62.92-8.74,5.74-11.26.81,2.07.12,3.71-1.05,5.52-2.06,3.18-1.42,6.3,1.51,8.62a6.09,6.09,0,0,0,8.11,0c2.9-2.34,3.55-5.47,1.43-8.63a6.22,6.22,0,0,1-1.1-5.56c4.87,2.57,7,6.74,5.81,11.35a10.46,10.46,0,0,1-20.45,0Zm67.41-21.2q-2.59-2.66-14.74-12.82-13-11-15.58-14.33a8.68,8.68,0,0,1-1.9-5.31,6.52,6.52,0,0,1,2.66-5,10.3,10.3,0,0,1,6.84-2.24q8.58,0,16.87,11.53l14.88-13.14v53.58A44.88,44.88,0,0,0,230.23,191.69Zm71.82,19q-4.17,7.89-10.73,11.24t-21.12,3.34h-9.86V154.91h7.21q19.79,0,28.74,8.8,9.93,9.79,9.93,27.56Q306.22,202.82,302.05,210.71Z" transform="translate(-16.63 -117)"/></svg>